# xmcd
#
# Track frame offsets:
#	150
#	17093
#	40320
#	58357
#	81228
#	100405
#	124053
#	143015
#	167971
#
# Disc length: 2492 seconds
#
# Revision: 0
# Processed by: cddbd v1.5.2PL0 Copyright (c) Steve Scherf et al.
# Submitted via: dBpowerAMP V4.0
#
DISCID=7d09ba09
DTITLE=William Segraves - Sheep In Wolves Clothing
DYEAR=2004
DGENRE=Blues
TTITLE0=The River
TTITLE1=Live In Me
TTITLE2=Ridin' With The King
TTITLE3=The Only Reason
TTITLE4=Anything
TTITLE5=Good Land
TTITLE6=Glory Train
TTITLE7=Thank You Lord
TTITLE8=Help Is On The Way
EXTD=
EXTT0=
EXTT1=
EXTT2=
EXTT3=
EXTT4=
EXTT5=
EXTT6=
EXTT7=
EXTT8=
PLAYORDER=
